<svg width="80" height="80" viewBox="0 0 80 80" fill="none" xmlns="http://www.w3.org/2000/svg">
<circle cx="40" cy="40" r="40" fill="#8391D0"/>
<path d="M63.2606 28.629L60.3286 23.759C59.7206 22.741 58.8906 21.349 57.6686 20.963L43.9066 16.609C41.3406 15.797 38.6286 15.797 36.0626 16.609L22.3006 20.965C21.1406 21.333 20.1546 22.109 19.4926 23.213L16.7546 28.553C15.9286 29.923 15.7726 31.569 16.3266 33.069C16.8786 34.569 18.0666 35.721 19.5846 36.225L20.0046 36.365L19.9926 51.573C19.9906 55.455 22.4626 58.891 26.1466 60.117L35.8706 63.359C37.1966 63.801 38.5886 64.023 39.9826 64.023C41.3766 64.023 42.7686 63.803 44.0946 63.359L53.8266 60.115C57.5106 58.887 59.9906 55.459 59.9926 51.583V36.355L60.4686 36.197C61.9666 35.697 63.1366 34.563 63.6826 33.083C64.2286 31.603 64.0746 29.979 63.2606 28.627V28.629ZM18.2026 32.377C17.8606 31.449 17.9566 30.431 18.5006 29.525L21.2386 24.183C21.3706 23.963 21.5306 23.763 21.7126 23.587L38.5286 29.211L34.5806 36.489C33.8066 37.779 32.2686 38.347 30.8446 37.871L20.2186 34.329C19.2806 34.015 18.5446 33.305 18.2026 32.377ZM38.9686 61.977C38.1326 61.901 37.3026 61.729 36.5026 61.463L26.7786 58.221C23.9126 57.265 21.9886 54.595 21.9906 51.575L22.0006 37.031L30.2066 39.767C32.5346 40.543 35.0326 39.617 36.3126 37.479L38.9786 32.565L38.9646 61.975L38.9686 61.977ZM24.4306 22.387L36.6666 18.515C38.8366 17.829 41.1326 17.829 43.3046 18.515L55.5746 22.399L40.0026 27.595L24.4306 22.387ZM57.9926 51.583C57.9906 54.597 56.0626 57.263 53.1946 58.219L43.4626 61.463C42.6546 61.733 41.8166 61.905 40.9706 61.979L40.9846 32.555L43.6766 37.517C44.6366 39.119 46.3226 40.037 48.1006 40.037C48.6506 40.037 49.2106 39.949 49.7606 39.765L57.9946 37.021V51.581L57.9926 51.583ZM61.8066 32.391C61.4726 33.299 60.7546 33.995 59.8366 34.301L49.1266 37.871C47.6986 38.341 46.1646 37.779 45.4126 36.527L41.4486 29.219L57.9306 23.719C58.2006 24.095 58.4486 24.511 58.6126 24.785L61.5486 29.661C62.0486 30.491 62.1426 31.485 61.8066 32.393V32.391Z" fill="white"/>
</svg>
