<svg width="28" height="28" viewBox="0 0 28 28" fill="none" xmlns="http://www.w3.org/2000/svg">
<rect width="28" height="28" rx="2" fill="#DA0000"/>
<path d="M21 8H17.25V6.5C17.25 6.10218 17.092 5.72064 16.8107 5.43934C16.5294 5.15804 16.1478 5 15.75 5H11.25C10.8522 5 10.4706 5.15804 10.1893 5.43934C9.90804 5.72064 9.75 6.10218 9.75 6.5V8H6V9.5H7.5V20.75C7.5 21.3467 7.73705 21.919 8.15901 22.341C8.58097 22.7629 9.15326 23 9.75 23H17.25C17.8467 23 18.419 22.7629 18.841 22.341C19.2629 21.919 19.5 21.3467 19.5 20.75V9.5H21V8ZM11.25 6.5H15.75V8H11.25V6.5ZM18 20.75C18 20.9489 17.921 21.1397 17.7803 21.2803C17.6397 21.421 17.4489 21.5 17.25 21.5H9.75C9.55109 21.5 9.36032 21.421 9.21967 21.2803C9.07902 21.1397 9 20.9489 9 20.75V9.5H18V20.75Z" fill="white"/>
<path d="M12.75 12.5H11.25V18.5H12.75V12.5Z" fill="white"/>
<path d="M15.75 12.5H14.25V18.5H15.75V12.5Z" fill="white"/>
</svg>
