<svg width="28" height="28" viewBox="0 0 28 28" fill="none" xmlns="http://www.w3.org/2000/svg">
<rect width="28" height="28" rx="2" fill="#0085B2"/>
<g clip-path="url(#clip0_115_30)">
<path d="M23.3925 11.8492C22.1 9.74419 19.16 6.21252 14 6.21252C8.84001 6.21252 5.90001 9.74419 4.60751 11.8492C4.20795 12.4954 3.99631 13.2402 3.99631 14C3.99631 14.7598 4.20795 15.5046 4.60751 16.1509C5.90001 18.2559 8.84001 21.7875 14 21.7875C19.16 21.7875 22.1 18.2559 23.3925 16.1509C23.7921 15.5046 24.0037 14.7598 24.0037 14C24.0037 13.2402 23.7921 12.4954 23.3925 11.8492ZM21.9717 15.2784C20.8617 17.0834 18.3492 20.1209 14 20.1209C9.65085 20.1209 7.13835 17.0834 6.02835 15.2784C5.79096 14.8942 5.66522 14.4516 5.66522 14C5.66522 13.5485 5.79096 13.1058 6.02835 12.7217C7.13835 10.9167 9.65085 7.87919 14 7.87919C18.3492 7.87919 20.8617 10.9134 21.9717 12.7217C22.2091 13.1058 22.3348 13.5485 22.3348 14C22.3348 14.4516 22.2091 14.8942 21.9717 15.2784Z" fill="white"/>
<path d="M14 9.83337C13.1759 9.83337 12.3703 10.0777 11.6851 10.5356C10.9999 10.9934 10.4659 11.6442 10.1505 12.4055C9.83515 13.1669 9.75263 14.0047 9.91341 14.8129C10.0742 15.6212 10.471 16.3636 11.0537 16.9463C11.6365 17.529 12.3789 17.9259 13.1871 18.0866C13.9954 18.2474 14.8332 18.1649 15.5945 17.8495C16.3559 17.5342 17.0066 17.0001 17.4645 16.3149C17.9223 15.6297 18.1667 14.8241 18.1667 14C18.1654 12.8954 17.7259 11.8363 16.9448 11.0552C16.1637 10.2741 15.1047 9.8347 14 9.83337ZM14 16.5C13.5056 16.5 13.0222 16.3534 12.6111 16.0787C12.2 15.804 11.8795 15.4136 11.6903 14.9567C11.5011 14.4999 11.4516 13.9973 11.548 13.5123C11.6445 13.0274 11.8826 12.5819 12.2322 12.2323C12.5819 11.8826 13.0273 11.6445 13.5123 11.5481C13.9972 11.4516 14.4999 11.5011 14.9567 11.6903C15.4135 11.8796 15.804 12.2 16.0787 12.6111C16.3534 13.0222 16.5 13.5056 16.5 14C16.5 14.6631 16.2366 15.299 15.7678 15.7678C15.2989 16.2366 14.6631 16.5 14 16.5Z" fill="white"/>
</g>
<defs>
<clipPath id="clip0_115_30">
<rect width="20" height="20" fill="white" transform="translate(4 4)"/>
</clipPath>
</defs>
</svg>
